<svg width="224" height="185" viewBox="0 0 224 185" fill="none" xmlns="http://www.w3.org/2000/svg">
<path d="M87 150.5C87 150.5 72.0678 150.5 62.5 150.5C59.7387 150.5 56.6064 150.5 53.4395 150.5C40.4667 150.5 28.1411 144.831 19.6984 134.981L19.0141 134.183C12.552 126.644 9 117.042 9 107.112V107.112C9 93.8431 15.3307 81.37 26.0413 73.5369L28.3105 71.8774C37.4623 65.1843 48.743 62.9013 60.0569 62.1618C61.547 62.0644 62.5 61.861 62.5 61.5V61.5C62.5 45.3479 70.8988 30.3579 84.6741 21.924L87 20.5V20.5C102.252 12.0957 120.748 12.0957 136 20.5V20.5L138.326 21.924C152.101 30.3579 160.5 45.3479 160.5 61.5V61.5C160.5 61.9536 161.871 62.1754 163.912 62.2543C175.258 62.6927 186.548 65.1915 195.713 71.8942L198.777 74.1358C208.973 81.5925 215 93.4663 215 106.098V106.098C215 116.6 210.828 126.672 203.402 134.098L201 136.5C192.036 145.464 179.877 150.5 167.2 150.5C164.852 150.5 162.561 150.5 160.5 150.5C150.932 150.5 136 150.5 136 150.5" stroke="#0B5B58" stroke-width="10" stroke-linecap="round"/>
<path d="M107 173C107 175.761 109.239 178 112 178C114.761 178 117 175.761 117 173L107 173ZM115.536 74.4645C113.583 72.5118 110.417 72.5118 108.464 74.4645L76.6447 106.284C74.692 108.237 74.692 111.403 76.6447 113.355C78.5973 115.308 81.7631 115.308 83.7157 113.355L112 85.0711L140.284 113.355C142.237 115.308 145.403 115.308 147.355 113.355C149.308 111.403 149.308 108.237 147.355 106.284L115.536 74.4645ZM117 173L117 78L107 78L107 173L117 173Z" fill="#EB5322"/>
</svg>
